<?xml version="1.0" encoding="UTF-8" standalone="no"?>
<!-- Created with Inkscape (http://www.inkscape.org/) -->

<svg
   xmlns:dc="http://purl.org/dc/elements/1.1/"
   xmlns:cc="http://creativecommons.org/ns#"
   xmlns:rdf="http://www.w3.org/1999/02/22-rdf-syntax-ns#"
   xmlns:svg="http://www.w3.org/2000/svg"
   xmlns="http://www.w3.org/2000/svg"
   xmlns:xlink="http://www.w3.org/1999/xlink"
   xmlns:sodipodi="http://sodipodi.sourceforge.net/DTD/sodipodi-0.dtd"
   xmlns:inkscape="http://www.inkscape.org/namespaces/inkscape"
   id="svg2"
   version="1.1"
   inkscape:version="0.48.4 r9939"
   width="40"
   height="40"
   sodipodi:docname="horn_hovered.svg">
  <metadata
     id="metadata8">
    <rdf:RDF>
      <cc:Work
         rdf:about="">
        <dc:format>image/svg+xml</dc:format>
        <dc:type
           rdf:resource="http://purl.org/dc/dcmitype/StillImage" />
        <dc:title />
      </cc:Work>
    </rdf:RDF>
  </metadata>
  <defs
     id="defs6">
    <linearGradient
       inkscape:collect="always"
       id="linearGradient3856">
      <stop
         style="stop-color:#cccccc;stop-opacity:1;"
         offset="0"
         id="stop3858" />
      <stop
         style="stop-color:#cccccc;stop-opacity:0;"
         offset="1"
         id="stop3860" />
    </linearGradient>
    <linearGradient
       inkscape:collect="always"
       id="linearGradient3814">
      <stop
         style="stop-color:#808080;stop-opacity:1;"
         offset="0"
         id="stop3816" />
      <stop
         style="stop-color:#808080;stop-opacity:0;"
         offset="1"
         id="stop3818" />
    </linearGradient>
    <radialGradient
       inkscape:collect="always"
       xlink:href="#linearGradient3814"
       id="radialGradient3822"
       cx="20"
       cy="19.704725"
       fx="20"
       fy="19.704725"
       r="19.5"
       gradientTransform="matrix(1,0,0,0.63052694,0,7.280365)"
       gradientUnits="userSpaceOnUse" />
    <linearGradient
       inkscape:collect="always"
       xlink:href="#linearGradient3856"
       id="linearGradient3862"
       x1="15.417215"
       y1="16.30589"
       x2="36.103874"
       y2="16.30589"
       gradientUnits="userSpaceOnUse" />
  </defs>
  <sodipodi:namedview
     pagecolor="#ffffff"
     bordercolor="#666666"
     borderopacity="1"
     objecttolerance="10"
     gridtolerance="10"
     guidetolerance="10"
     inkscape:pageopacity="0"
     inkscape:pageshadow="2"
     inkscape:window-width="1280"
     inkscape:window-height="757"
     id="namedview4"
     showgrid="false"
     inkscape:zoom="2.9667058"
     inkscape:cx="-44.114536"
     inkscape:cy="0.25067827"
     inkscape:window-x="-1"
     inkscape:window-y="-15"
     inkscape:window-maximized="1"
     inkscape:current-layer="svg2" />
  <path
     style="fill:url(#radialGradient3822);fill-opacity:1;fill-rule:nonzero;stroke:#51504e;stroke-width:0.73805045999999996;stroke-miterlimit:4;stroke-opacity:1;stroke-dasharray:none"
     d="M 34.330434,29.294463 C 30.076437,25.652997 26.449423,24.05396 20.275046,23.097887 14.06398,22.136133 13.115123,22.298591 10.754632,24.727928 9.1038418,26.426867 8.342919,26.873617 7.1024136,26.872207 3.670052,26.868305 0.73848772,23.486255 0.87351191,19.686135 0.97434601,16.848298 1.6925954,15.28841 3.5809985,13.806045 c 2.4122331,-1.893564 4.8096575,-1.718419 6.9744585,0.509523 0.934497,0.961752 1.699084,1.959846 1.699084,2.217986 0,0.294922 1.593079,0.36165 4.286674,0.179553 8.435984,-0.570301 14.181308,-2.89002 19.332244,-7.8055386 2.803825,-2.6756862 3.257516,-1.169731 3.257516,10.8128896 0,9.194483 -0.306818,11.927125 -1.337304,11.910441 -0.411365,-0.0067 -1.969827,-1.058056 -3.463237,-2.336436 z M 8.3575585,24.847155 c 2.2666945,-1.936517 2.5068235,-2.438794 2.5068235,-5.243506 0,-2.543979 -0.135764,-2.925988 -1.4934312,-4.202193 -1.9748206,-1.856329 -3.3685894,-1.793935 -5.2269649,0.233988 -2.5158726,2.745406 -2.4885679,5.544411 0.079876,8.187763 1.650416,1.698554 2.9633883,2.023786 4.1337005,1.023948 z M 23.607517,19.721171 c 3.313214,-0.260629 6.75386,-0.701768 7.645881,-0.980308 0.892018,-0.27854 2.136682,-0.614008 2.76593,-0.745486 1.904795,-0.398001 2.331326,-1.096458 2.331326,-3.817688 0,-1.410512 -0.118176,-2.564567 -0.262618,-2.564567 -0.144432,0 -0.937875,0.530077 -1.763212,1.177947 -1.273057,0.999333 -4.967376,2.945141 -6.546828,3.448235 -1.669856,0.531889 -10.038188,2.013053 -11.468821,2.029938 -1.129194,0.01333 -1.737699,0.243177 -1.737699,0.656379 0,1.465052 0.247784,1.486867 9.036041,0.79555 z"
     id="path3008"
     inkscape:connector-curvature="0" />
  <path
     style="fill:#66ff00;fill-opacity:1;fill-rule:nonzero;stroke:#51504e;stroke-width:0.74841106000000002;stroke-miterlimit:4;stroke-opacity:1;stroke-dasharray:none"
     d="M 5.4276048,23.856717 C 2.6400936,21.66406 2.4063509,18.554402 4.8342307,15.962607 c 2.2488232,-2.400649 5.1693413,-0.412577 5.2936923,3.603554 0.05483,1.770759 -0.1669179,2.638063 -0.8746053,3.420798 -1.6435869,1.817885 -2.4013531,1.990159 -3.8257129,0.869758 l 0,0 z"
     id="path3824"
     inkscape:connector-curvature="0" />
  <path
     style="fill:url(#linearGradient3862);fill-opacity:1;fill-rule:nonzero;stroke:#51504e;stroke-width:0.74841106000000002;stroke-miterlimit:4;stroke-opacity:1;stroke-dasharray:none"
     d="m 15.945547,19.270988 c 0.249074,-0.212303 2.798731,-0.767426 5.665907,-1.233607 5.550144,-0.902411 8.6264,-1.916026 11.696034,-3.853801 1.045783,-0.660174 2.012942,-1.200316 2.149243,-1.200316 0.539745,0 0.208486,3.252772 -0.381089,3.742075 -1.000224,0.830112 -6.298844,1.879839 -12.241853,2.425273 -6.620217,0.607587 -7.47741,0.622566 -6.888242,0.120376 z"
     id="path3854"
     inkscape:connector-curvature="0" />
  <path
     style="fill:#66ff00;fill-opacity:1;fill-rule:nonzero;stroke:#51504e;stroke-width:0.26460326000000001;stroke-miterlimit:4;stroke-opacity:1;stroke-dasharray:none"
     d="M 5.6962323,23.605777 C 3.9121592,22.243536 3.1435618,20.154319 3.7749247,18.38324 c 0.5618258,-1.576015 2.115101,-3.14166 3.1153837,-3.140194 1.0630807,0.0016 2.3773426,1.418845 2.7150502,2.927882 0.1084588,0.484645 0.1695257,1.489492 0.1357042,2.232993 -0.071435,1.570353 -0.5046481,2.407162 -1.6911327,3.266647 -0.9016468,0.65315 -1.43258,0.638534 -2.3536978,-0.06479 l 0,0 z"
     id="path2996"
     inkscape:connector-curvature="0" />
</svg>
