<?xml version="1.0" encoding="UTF-8" standalone="no"?>
<!-- Created with Inkscape (http://www.inkscape.org/) -->

<svg
   xmlns:dc="http://purl.org/dc/elements/1.1/"
   xmlns:cc="http://creativecommons.org/ns#"
   xmlns:rdf="http://www.w3.org/1999/02/22-rdf-syntax-ns#"
   xmlns:svg="http://www.w3.org/2000/svg"
   xmlns="http://www.w3.org/2000/svg"
   xmlns:xlink="http://www.w3.org/1999/xlink"
   xmlns:sodipodi="http://sodipodi.sourceforge.net/DTD/sodipodi-0.dtd"
   xmlns:inkscape="http://www.inkscape.org/namespaces/inkscape"
   width="86"
   height="86"
   id="svg2"
   version="1.1"
   inkscape:version="0.48.4 r9939"
   sodipodi:docname="center2.svg">
  <defs
     id="defs4">
    <linearGradient
       x1="-14.439"
       y1="-16.7803"
       x2="93.464996"
       y2="95.686699"
       id="SVGID_1_"
       gradientUnits="userSpaceOnUse">
      <stop
         id="stop3709"
         style="stop-color:#ffffff;stop-opacity:1"
         offset="0" />
      <stop
         id="stop3711"
         style="stop-color:#000000;stop-opacity:1"
         offset="1" />
    </linearGradient>
    <radialGradient
       cx="18.971701"
       cy="7.0556998"
       r="75.801399"
       id="SVGID_2_"
       gradientUnits="userSpaceOnUse">
      <stop
         id="stop3716"
         style="stop-color:#ffffff;stop-opacity:1"
         offset="0" />
      <stop
         id="stop3718"
         style="stop-color:#616161;stop-opacity:1"
         offset="1" />
    </radialGradient>
    <linearGradient
       x1="40.8395"
       y1="1.9759037"
       x2="41"
       y2="37.37751"
       id="linearGradient6798"
       xlink:href="#linearGradient6792"
       gradientUnits="userSpaceOnUse"
       gradientTransform="translate(2,968.36218)" />
    <linearGradient
       id="linearGradient6792">
      <stop
         id="stop6794"
         style="stop-color:#ffffff;stop-opacity:1"
         offset="0" />
      <stop
         id="stop6796"
         style="stop-color:#ffffff;stop-opacity:0"
         offset="1" />
    </linearGradient>
    <linearGradient
       x1="39.682732"
       y1="79.859444"
       x2="39.847389"
       y2="68.333336"
       id="linearGradient6806"
       xlink:href="#linearGradient6800"
       gradientUnits="userSpaceOnUse"
       gradientTransform="translate(2,968.36218)" />
    <linearGradient
       id="linearGradient6800">
      <stop
         id="stop6802"
         style="stop-color:#ffffff;stop-opacity:1"
         offset="0" />
      <stop
         id="stop6804"
         style="stop-color:#ffffff;stop-opacity:0"
         offset="1" />
    </linearGradient>
    <radialGradient
       r="75.801399"
       cy="7.0556998"
       cx="18.971701"
       gradientUnits="userSpaceOnUse"
       id="radialGradient3043"
       xlink:href="#SVGID_2_"
       inkscape:collect="always" />
  </defs>
  <sodipodi:namedview
     id="base"
     pagecolor="#ffffff"
     bordercolor="#666666"
     borderopacity="1.0"
     inkscape:pageopacity="0.0"
     inkscape:pageshadow="2"
     inkscape:zoom="1"
     inkscape:cx="375"
     inkscape:cy="135.49266"
     inkscape:document-units="px"
     inkscape:current-layer="layer1"
     showgrid="false"
     inkscape:window-width="1280"
     inkscape:window-height="757"
     inkscape:window-x="-1"
     inkscape:window-y="-15"
     inkscape:window-maximized="1" />
  <metadata
     id="metadata7">
    <rdf:RDF>
      <cc:Work
         rdf:about="">
        <dc:format>image/svg+xml</dc:format>
        <dc:type
           rdf:resource="http://purl.org/dc/dcmitype/StillImage" />
        <dc:title></dc:title>
      </cc:Work>
    </rdf:RDF>
  </metadata>
  <g
     inkscape:label="Layer 1"
     inkscape:groupmode="layer"
     id="layer1"
     transform="translate(0,-966.36218)">
    <g
       id="g3706"
       transform="translate(2,968.36218)">
      <linearGradient
         x1="-14.439"
         y1="-16.7803"
         x2="93.464996"
         y2="95.686699"
         id="linearGradient3026"
         gradientUnits="userSpaceOnUse">
        <stop
           id="stop3028"
           style="stop-color:#ffffff;stop-opacity:1"
           offset="0" />
        <stop
           id="stop3030"
           style="stop-color:#000000;stop-opacity:1"
           offset="1" />
      </linearGradient>
      <path
         inkscape:connector-curvature="0"
         d="m 69.984,12.008 c 0,-10e-4 0,-10e-4 0,0 C 62.566,4.585 52.318,0 41,0 29.677,0 19.43,4.585 12.013,12.005 l 0,0 C 4.592,19.43 0,29.682 0,41 0,52.318 4.592,62.57 12.012,69.995 l 0,0 C 19.43,77.415 29.677,82 41,82 c 11.318,0 21.566,-4.585 28.984,-12.007 0,0 0,0 0,-10e-4 C 77.406,62.569 82,52.317 82,41 82,29.683 77.406,19.431 69.984,12.008 z"
         id="path3713"
         style="fill:url(#SVGID_1_)" />
      <radialGradient
         cx="18.971701"
         cy="7.0556998"
         r="75.801399"
         id="radialGradient3033"
         gradientUnits="userSpaceOnUse">
        <stop
           id="stop3035"
           style="stop-color:#ffffff;stop-opacity:1"
           offset="0" />
        <stop
           id="stop3037"
           style="stop-color:#616161;stop-opacity:1"
           offset="1" />
      </radialGradient>
      <path
         inkscape:connector-curvature="0"
         d="M 41,80 C 30.58,80 20.789,75.944 13.426,68.582 6.058,61.209 2,51.413 2,41 2,30.586 6.058,20.791 13.426,13.418 20.79,6.056 30.581,2 41,2 51.417,2 61.207,6.056 68.57,13.42 75.94,20.793 79.998,30.586 79.998,41 79.998,51.413 75.94,61.207 68.57,68.578 61.207,75.944 51.418,80 41,80 l 0,0 z"
         id="path3720"
         style="fill:url(#radialGradient3043)" />
    </g>
    <path
       inkscape:connector-curvature="0"
       d="m 42.838,998.4172 c 14.832,0 28.167,6.186 37.404,16.033 0.383,-2.093 0.593,-4.242 0.593,-6.441 0,-20.30002 -17.009,-36.75202 -37.996,-36.75202 -20.987,0 -37.995,16.452 -37.995,36.75202 0,2.199 0.211,4.348 0.594,6.441 9.235,-9.848 22.57,-16.033 37.4,-16.033 z"
       id="path3722"
       style="opacity:0.8;fill:url(#linearGradient6798);fill-opacity:1" />
    <path
       inkscape:connector-curvature="0"
       d="m 17.155,1035.9892 c 0,0 11.469,2.681 25.619,2.681 14.15,0 25.616,-2.681 25.616,-2.681 0,0 -8.537,10.238 -25.616,10.238 -16.306,0 -25.619,-10.238 -25.619,-10.238 z"
       id="path3724"
       style="opacity:0.8;fill:url(#linearGradient6806);fill-opacity:1" />
    <rect
       style="fill:#b4b4b4;fill-opacity:1;fill-rule:evenodd;stroke:#828282;stroke-width:1.24030864;stroke-linecap:butt;stroke-linejoin:miter;stroke-miterlimit:4;stroke-opacity:1;stroke-dasharray:none"
       id="rect5506"
       width="28.759691"
       height="28.759691"
       x="28.620148"
       y="994.98236" />
  </g>
</svg>
