<?xml version="1.0" encoding="UTF-8" standalone="no"?>
<!-- Created with Inkscape (http://www.inkscape.org/) -->

<svg
   xmlns:dc="http://purl.org/dc/elements/1.1/"
   xmlns:cc="http://creativecommons.org/ns#"
   xmlns:rdf="http://www.w3.org/1999/02/22-rdf-syntax-ns#"
   xmlns:svg="http://www.w3.org/2000/svg"
   xmlns="http://www.w3.org/2000/svg"
   xmlns:xlink="http://www.w3.org/1999/xlink"
   xmlns:sodipodi="http://sodipodi.sourceforge.net/DTD/sodipodi-0.dtd"
   xmlns:inkscape="http://www.inkscape.org/namespaces/inkscape"
   width="86"
   height="86"
   id="svg2"
   version="1.1"
   inkscape:version="0.48.4 r9939"
   sodipodi:docname="New document 1">
  <defs
     id="defs4">
    <radialGradient
       inkscape:collect="always"
       xlink:href="#SVGID_1_"
       id="radialGradient5466"
       cx="41"
       cy="41"
       fx="41"
       fy="41"
       r="5.8571429"
       gradientUnits="userSpaceOnUse"
       gradientTransform="matrix(2.5373776,0,0,2.5373775,-61.032479,905.32968)" />
    <radialGradient
       cx="56.375"
       cy="59.792"
       r="62.999802"
       id="SVGID_1_"
       gradientUnits="userSpaceOnUse">
      <stop
         id="stop5604"
         style="stop-color:#e1ff00;stop-opacity:1"
         offset="0" />
      <stop
         id="stop5606"
         style="stop-color:#ddfc00;stop-opacity:1"
         offset="0.1767" />
      <stop
         id="stop5608"
         style="stop-color:#d1f301;stop-opacity:1"
         offset="0.3522" />
      <stop
         id="stop5610"
         style="stop-color:#bde403;stop-opacity:1"
         offset="0.52719998" />
      <stop
         id="stop5612"
         style="stop-color:#a1ce05;stop-opacity:1"
         offset="0.70209998" />
      <stop
         id="stop5614"
         style="stop-color:#7eb308;stop-opacity:1"
         offset="0.87510002" />
      <stop
         id="stop5616"
         style="stop-color:#5f9c0b;stop-opacity:1"
         offset="1" />
    </radialGradient>
    <linearGradient
       x1="40.176708"
       y1="79.530121"
       x2="40.506023"
       y2="68.827309"
       id="linearGradient6570"
       xlink:href="#linearGradient6564"
       gradientUnits="userSpaceOnUse"
       gradientTransform="translate(2,968.36218)" />
    <linearGradient
       id="linearGradient6564">
      <stop
         id="stop6566"
         style="stop-color:#ffffff;stop-opacity:1"
         offset="0" />
      <stop
         id="stop6568"
         style="stop-color:#ffffff;stop-opacity:0"
         offset="1" />
    </linearGradient>
    <linearGradient
       x1="39.682728"
       y1="1.3172691"
       x2="40.341366"
       y2="39.847389"
       id="linearGradient6578"
       xlink:href="#linearGradient6572"
       gradientUnits="userSpaceOnUse"
       gradientTransform="translate(2,968.36218)" />
    <linearGradient
       id="linearGradient6572">
      <stop
         id="stop6574"
         style="stop-color:#ffffff;stop-opacity:1"
         offset="0" />
      <stop
         id="stop6576"
         style="stop-color:#ffffff;stop-opacity:0"
         offset="1" />
    </linearGradient>
    <radialGradient
       cx="56.375"
       cy="59.792"
       r="62.999802"
       id="radialGradient3039"
       gradientUnits="userSpaceOnUse">
      <stop
         id="stop3041"
         style="stop-color:#e1ff00;stop-opacity:1"
         offset="0" />
      <stop
         id="stop3043"
         style="stop-color:#ddfc00;stop-opacity:1"
         offset="0.1767" />
      <stop
         id="stop3045"
         style="stop-color:#d1f301;stop-opacity:1"
         offset="0.3522" />
      <stop
         id="stop3047"
         style="stop-color:#bde403;stop-opacity:1"
         offset="0.52719998" />
      <stop
         id="stop3049"
         style="stop-color:#a1ce05;stop-opacity:1"
         offset="0.70209998" />
      <stop
         id="stop3051"
         style="stop-color:#7eb308;stop-opacity:1"
         offset="0.87510002" />
      <stop
         id="stop3053"
         style="stop-color:#5f9c0b;stop-opacity:1"
         offset="1" />
    </radialGradient>
    <radialGradient
       cx="19.5376"
       cy="7.9263"
       r="73.856903"
       id="SVGID_2_"
       gradientUnits="userSpaceOnUse">
      <stop
         id="stop5621"
         style="stop-color:#ffffff;stop-opacity:1"
         offset="0" />
      <stop
         id="stop5623"
         style="stop-color:#616161;stop-opacity:1"
         offset="1" />
    </radialGradient>
    <radialGradient
       r="62.999802"
       cy="59.792"
       cx="56.375"
       gradientUnits="userSpaceOnUse"
       id="radialGradient3087"
       xlink:href="#SVGID_1_"
       inkscape:collect="always" />
    <radialGradient
       r="73.856903"
       cy="7.9263"
       cx="19.5376"
       gradientUnits="userSpaceOnUse"
       id="radialGradient3089"
       xlink:href="#SVGID_2_"
       inkscape:collect="always" />
  </defs>
  <sodipodi:namedview
     id="base"
     pagecolor="#ffffff"
     bordercolor="#666666"
     borderopacity="1.0"
     inkscape:pageopacity="0.0"
     inkscape:pageshadow="2"
     inkscape:zoom="1"
     inkscape:cx="375"
     inkscape:cy="-40"
     inkscape:document-units="px"
     inkscape:current-layer="layer1"
     showgrid="false"
     inkscape:window-width="1280"
     inkscape:window-height="757"
     inkscape:window-x="-1"
     inkscape:window-y="-15"
     inkscape:window-maximized="1" />
  <metadata
     id="metadata7">
    <rdf:RDF>
      <cc:Work
         rdf:about="">
        <dc:format>image/svg+xml</dc:format>
        <dc:type
           rdf:resource="http://purl.org/dc/dcmitype/StillImage" />
        <dc:title></dc:title>
      </cc:Work>
    </rdf:RDF>
  </metadata>
  <g
     inkscape:label="Layer 1"
     inkscape:groupmode="layer"
     id="layer1"
     transform="translate(0,-966.36218)">
    <g
       id="g5601"
       transform="translate(2,968.36218)">
      <radialGradient
         cx="56.375"
         cy="59.792"
         r="62.999802"
         id="radialGradient3059"
         gradientUnits="userSpaceOnUse">
        <stop
           id="stop3061"
           style="stop-color:#e1ff00;stop-opacity:1"
           offset="0" />
        <stop
           id="stop3063"
           style="stop-color:#ddfc00;stop-opacity:1"
           offset="0.1767" />
        <stop
           id="stop3065"
           style="stop-color:#d1f301;stop-opacity:1"
           offset="0.3522" />
        <stop
           id="stop3067"
           style="stop-color:#bde403;stop-opacity:1"
           offset="0.52719998" />
        <stop
           id="stop3069"
           style="stop-color:#a1ce05;stop-opacity:1"
           offset="0.70209998" />
        <stop
           id="stop3071"
           style="stop-color:#7eb308;stop-opacity:1"
           offset="0.87510002" />
        <stop
           id="stop3073"
           style="stop-color:#5f9c0b;stop-opacity:1"
           offset="1" />
      </radialGradient>
      <path
         inkscape:connector-curvature="0"
         d="m 69.984,12.008 c 0,-10e-4 0,-10e-4 0,0 C 62.566,4.585 52.318,0 41,0 29.677,0 19.43,4.585 12.013,12.005 l 0,0 C 4.592,19.43 0,29.682 0,41 0,52.318 4.592,62.57 12.012,69.995 l 0,0 C 19.43,77.415 29.677,82 41,82 c 11.318,0 21.566,-4.585 28.984,-12.007 0,0 0,0 0,-10e-4 C 77.406,62.569 82,52.317 82,41 82,29.683 77.406,19.431 69.984,12.008 z"
         id="path5618"
         style="fill:url(#radialGradient3087)" />
      <radialGradient
         cx="19.5376"
         cy="7.9263"
         r="73.856903"
         id="radialGradient3076"
         gradientUnits="userSpaceOnUse">
        <stop
           id="stop3078"
           style="stop-color:#ffffff;stop-opacity:1"
           offset="0" />
        <stop
           id="stop3080"
           style="stop-color:#616161;stop-opacity:1"
           offset="1" />
      </radialGradient>
      <path
         inkscape:connector-curvature="0"
         d="M 41,78.999 C 30.846,78.999 21.305,75.049 14.135,67.873 6.955,60.688 3.001,51.145 3.001,40.999 3.001,30.855 6.955,21.312 14.135,14.124 21.307,6.95 30.848,3 41,3 c 10.149,0 19.689,3.952 26.863,11.128 7.183,7.182 11.136,16.726 11.136,26.871 0,10.145 -3.953,19.689 -11.136,26.872 C 60.691,75.047 51.152,78.999 41,78.999 l 0,0 z"
         id="path5625"
         style="fill:url(#radialGradient3089)" />
    </g>
    <path
       inkscape:connector-curvature="0"
       d="m 42.838,998.41718 c 14.832,0 28.167,6.18602 37.404,16.03302 0.383,-2.093 0.593,-4.242 0.593,-6.441 0,-20.30002 -17.009,-36.75202 -37.996001,-36.75202 -20.987001,0 -37.995,16.452 -37.995,36.75202 0,2.199 0.210998,4.348 0.594,6.441 C 14.673,1004.6022 28.008,998.41718 42.838,998.41718 z"
       id="path5627"
       style="opacity:0.8;fill:url(#linearGradient6578);fill-opacity:1" />
    <path
       inkscape:connector-curvature="0"
       d="m 17.155,1035.9892 c 0,0 11.468999,2.681 25.618999,2.681 14.149999,0 25.616001,-2.681 25.616001,-2.681 0,0 -8.537,10.238 -25.616001,10.238 -16.306001,0 -25.618999,-10.238 -25.618999,-10.238 z"
       id="path5629"
       style="opacity:0.8;fill:url(#linearGradient6570);fill-opacity:1" />
    <rect
       style="fill:#64ff00;fill-opacity:1;fill-rule:evenodd;stroke:url(#radialGradient5466);stroke-width:1.22857416;stroke-linecap:butt;stroke-linejoin:miter;stroke-miterlimit:4;stroke-opacity:1;stroke-dasharray:none"
       id="rect3012"
       width="28.771425"
       height="28.771427"
       x="28.614288"
       y="994.97656" />
    <path
       style="fill:none"
       d="m 29.062512,1009.3473 0,-14.00002 13.916668,0 13.91667,0 0,14.00002 0,14 -13.91667,0 -13.916668,0 0,-14 z"
       id="path3030"
       inkscape:connector-curvature="0" />
  </g>
</svg>
