<?xml version="1.0" encoding="UTF-8" standalone="no"?>
<!-- Created with Inkscape (http://www.inkscape.org/) -->

<svg
   xmlns:dc="http://purl.org/dc/elements/1.1/"
   xmlns:cc="http://creativecommons.org/ns#"
   xmlns:rdf="http://www.w3.org/1999/02/22-rdf-syntax-ns#"
   xmlns:svg="http://www.w3.org/2000/svg"
   xmlns="http://www.w3.org/2000/svg"
   xmlns:xlink="http://www.w3.org/1999/xlink"
   xmlns:sodipodi="http://sodipodi.sourceforge.net/DTD/sodipodi-0.dtd"
   xmlns:inkscape="http://www.inkscape.org/namespaces/inkscape"
   width="86"
   height="86"
   id="svg2"
   version="1.1"
   inkscape:version="0.48.4 r9939"
   sodipodi:docname="New document 1">
  <defs
     id="defs4">
    <linearGradient
       inkscape:collect="always"
       xlink:href="#linearGradient5329"
       id="linearGradient5473"
       x1="35.14286"
       y1="41.000004"
       x2="46.857143"
       y2="41.000004"
       gradientUnits="userSpaceOnUse"
       gradientTransform="matrix(2.5310125,0,0,2.531013,-1113.1337,-60.771545)" />
    <linearGradient
       gradientUnits="userSpaceOnUse"
       id="linearGradient5329"
       y2="5.1255999"
       x2="41.0005"
       y1="105.0625"
       x1="41.0005">
      <stop
         offset="0"
         style="stop-color:#ffffff;stop-opacity:1"
         id="stop5331" />
      <stop
         offset="0.0688"
         style="stop-color:#f0f0f0;stop-opacity:1"
         id="stop5333" />
      <stop
         offset="0.2016"
         style="stop-color:#c8c8c8;stop-opacity:1"
         id="stop5335" />
      <stop
         offset="0.38499999"
         style="stop-color:#888888;stop-opacity:1"
         id="stop5337" />
      <stop
         offset="0.60960001"
         style="stop-color:#303030;stop-opacity:1"
         id="stop5339" />
      <stop
         offset="0.72530001"
         style="stop-color:#000000;stop-opacity:1"
         id="stop5341" />
    </linearGradient>
    <linearGradient
       x1="40.176704"
       y1="76.730927"
       x2="40.341366"
       y2="67.674698"
       id="linearGradient6952"
       xlink:href="#linearGradient6946"
       gradientUnits="userSpaceOnUse"
       gradientTransform="translate(2,968.36218)" />
    <linearGradient
       id="linearGradient6946">
      <stop
         id="stop6948"
         style="stop-color:#ffffff;stop-opacity:1"
         offset="0" />
      <stop
         id="stop6950"
         style="stop-color:#ffffff;stop-opacity:0"
         offset="1" />
    </linearGradient>
    <linearGradient
       x1="42.152611"
       y1="0.49397591"
       x2="41.658634"
       y2="39.353413"
       id="linearGradient6944"
       xlink:href="#linearGradient6938"
       gradientUnits="userSpaceOnUse"
       gradientTransform="translate(2,968.36218)" />
    <linearGradient
       id="linearGradient6938">
      <stop
         id="stop6940"
         style="stop-color:#ffffff;stop-opacity:1"
         offset="0" />
      <stop
         id="stop6942"
         style="stop-color:#ffffff;stop-opacity:0"
         offset="1" />
    </linearGradient>
    <linearGradient
       x1="41.0005"
       y1="105.0625"
       x2="41.0005"
       y2="5.1255999"
       id="SVGID_1_"
       gradientUnits="userSpaceOnUse">
      <stop
         id="stop242"
         style="stop-color:#ffffff;stop-opacity:1"
         offset="0" />
      <stop
         id="stop244"
         style="stop-color:#f0f0f0;stop-opacity:1"
         offset="0.0688" />
      <stop
         id="stop246"
         style="stop-color:#c8c8c8;stop-opacity:1"
         offset="0.2016" />
      <stop
         id="stop248"
         style="stop-color:#888888;stop-opacity:1"
         offset="0.38499999" />
      <stop
         id="stop250"
         style="stop-color:#303030;stop-opacity:1"
         offset="0.60960001" />
      <stop
         id="stop252"
         style="stop-color:#000000;stop-opacity:1"
         offset="0.72530001" />
    </linearGradient>
    <radialGradient
       cx="24.7495"
       cy="10.125"
       r="71.959702"
       id="SVGID_2_"
       gradientUnits="userSpaceOnUse">
      <stop
         id="stop257"
         style="stop-color:#e1ff00;stop-opacity:1"
         offset="0" />
      <stop
         id="stop259"
         style="stop-color:#b6df04;stop-opacity:1"
         offset="0.35139999" />
      <stop
         id="stop261"
         style="stop-color:#5f9c0b;stop-opacity:1"
         offset="1" />
    </radialGradient>
    <linearGradient
       x1="50.508801"
       y1="60.654301"
       x2="30.222401"
       y2="18.729099"
       id="SVGID_3_"
       gradientUnits="userSpaceOnUse">
      <stop
         id="stop266"
         style="stop-color:#cde800;stop-opacity:1"
         offset="0" />
      <stop
         id="stop268"
         style="stop-color:#a2c202;stop-opacity:1"
         offset="0.32780001" />
      <stop
         id="stop270"
         style="stop-color:#416b08;stop-opacity:1"
         offset="1" />
    </linearGradient>
    <linearGradient
       y2="18.729099"
       x2="30.222401"
       y1="60.654301"
       x1="50.508801"
       gradientUnits="userSpaceOnUse"
       id="linearGradient3105"
       xlink:href="#SVGID_3_"
       inkscape:collect="always" />
  </defs>
  <sodipodi:namedview
     id="base"
     pagecolor="#ffffff"
     bordercolor="#666666"
     borderopacity="1.0"
     inkscape:pageopacity="0.0"
     inkscape:pageshadow="2"
     inkscape:zoom="1"
     inkscape:cx="375"
     inkscape:cy="-40"
     inkscape:document-units="px"
     inkscape:current-layer="layer1"
     showgrid="false"
     inkscape:window-width="1280"
     inkscape:window-height="757"
     inkscape:window-x="-1"
     inkscape:window-y="-15"
     inkscape:window-maximized="1" />
  <metadata
     id="metadata7">
    <rdf:RDF>
      <cc:Work
         rdf:about="">
        <dc:format>image/svg+xml</dc:format>
        <dc:type
           rdf:resource="http://purl.org/dc/dcmitype/StillImage" />
        <dc:title></dc:title>
      </cc:Work>
    </rdf:RDF>
  </metadata>
  <g
     inkscape:label="Layer 1"
     inkscape:groupmode="layer"
     id="layer1"
     transform="translate(0,-966.36218)">
    <g
       id="g239"
       transform="translate(2,968.36218)">
      <linearGradient
         x1="41.0005"
         y1="105.0625"
         x2="41.0005"
         y2="5.1255999"
         id="linearGradient3069"
         gradientUnits="userSpaceOnUse">
        <stop
           id="stop3071"
           style="stop-color:#ffffff;stop-opacity:1"
           offset="0" />
        <stop
           id="stop3073"
           style="stop-color:#f0f0f0;stop-opacity:1"
           offset="0.0688" />
        <stop
           id="stop3075"
           style="stop-color:#c8c8c8;stop-opacity:1"
           offset="0.2016" />
        <stop
           id="stop3077"
           style="stop-color:#888888;stop-opacity:1"
           offset="0.38499999" />
        <stop
           id="stop3079"
           style="stop-color:#303030;stop-opacity:1"
           offset="0.60960001" />
        <stop
           id="stop3081"
           style="stop-color:#000000;stop-opacity:1"
           offset="0.72530001" />
      </linearGradient>
      <path
         inkscape:connector-curvature="0"
         d="m 69.984,12.008 c 0,-10e-4 0,-10e-4 0,0 C 62.566,4.585 52.318,0 41,0 29.677,0 19.43,4.585 12.013,12.005 l 0,0 C 4.592,19.43 0,29.682 0,41 0,52.318 4.592,62.57 12.012,69.995 l 0,0 C 19.43,77.415 29.677,82 41,82 c 11.318,0 21.566,-4.585 28.984,-12.007 0,0 0,0 0,-10e-4 C 77.406,62.569 82,52.317 82,41 82,29.683 77.406,19.431 69.984,12.008 z"
         id="path254"
         style="fill:url(#SVGID_1_)" />
      <radialGradient
         cx="24.7495"
         cy="10.125"
         r="71.959702"
         id="radialGradient3084"
         gradientUnits="userSpaceOnUse">
        <stop
           id="stop3086"
           style="stop-color:#e1ff00;stop-opacity:1"
           offset="0" />
        <stop
           id="stop3088"
           style="stop-color:#b6df04;stop-opacity:1"
           offset="0.35139999" />
        <stop
           id="stop3090"
           style="stop-color:#5f9c0b;stop-opacity:1"
           offset="1" />
      </radialGradient>
      <path
         inkscape:connector-curvature="0"
         d="M 41,80 C 30.58,80 20.789,75.944 13.426,68.582 6.058,61.209 2,51.413 2,41 2,30.586 6.058,20.791 13.426,13.418 20.79,6.056 30.581,2 41,2 51.417,2 61.207,6.056 68.57,13.42 75.94,20.793 79.998,30.586 79.998,41 79.998,51.413 75.94,61.207 68.57,68.578 61.207,75.944 51.418,80 41,80 l 0,0 z"
         id="path263"
         style="opacity:0.86000001;fill:url(#SVGID_2_)" />
      <linearGradient
         x1="50.508801"
         y1="60.654301"
         x2="30.222401"
         y2="18.729099"
         id="linearGradient3093"
         gradientUnits="userSpaceOnUse">
        <stop
           id="stop3095"
           style="stop-color:#cde800;stop-opacity:1"
           offset="0" />
        <stop
           id="stop3097"
           style="stop-color:#a2c202;stop-opacity:1"
           offset="0.32780001" />
        <stop
           id="stop3099"
           style="stop-color:#416b08;stop-opacity:1"
           offset="1" />
      </linearGradient>
      <path
         inkscape:connector-curvature="0"
         d="M 41,78 C 31.115,78 21.827,74.152 14.842,67.167 7.85,60.172 4,50.88 4,41 4,31.119 7.85,21.827 14.841,14.833 21.824,7.847 31.114,3.999 41,3.999 c 9.884,0 19.173,3.848 26.155,10.835 C 74.147,21.829 78,31.123 78,41 78,50.879 74.147,60.169 67.156,67.163 60.173,74.152 50.884,78 41,78 l 0,0 z"
         id="path272"
         style="fill:url(#linearGradient3105)" />
    </g>
    <path
       inkscape:connector-curvature="0"
       d="m 42.838,998.4172 c 14.832,0 28.167,6.186 37.403999,16.033 0.382999,-2.093 0.592999,-4.242 0.592999,-6.441 0,-20.30002 -17.008999,-36.75202 -37.995999,-36.75202 -20.987001,0 -37.995001,16.452 -37.995001,36.75202 0,2.199 0.210999,4.348 0.594001,6.441 C 14.673,1004.6022 28.008,998.4172 42.838,998.4172 z"
       id="path274"
       style="opacity:0.8;fill:url(#linearGradient6944);fill-opacity:1" />
    <path
       inkscape:connector-curvature="0"
       d="m 17.155,1035.9892 c 0,0 11.468999,2.681 25.618999,2.681 14.149999,0 25.615999,-2.681 25.615999,-2.681 0,0 -8.536999,10.238 -25.615999,10.238 -16.305998,0 -25.618999,-10.238 -25.618999,-10.238 z"
       id="path276"
       style="opacity:0.8;fill:url(#linearGradient6952);fill-opacity:1" />
    <rect
       style="fill:#aad200;fill-opacity:1;fill-rule:evenodd;stroke:url(#linearGradient5473);stroke-width:1.22549236;stroke-linecap:butt;stroke-linejoin:miter;stroke-miterlimit:4;stroke-opacity:1;stroke-dasharray:none"
       id="rect3049"
       width="28.774506"
       height="28.774506"
       x="-1023.7495"
       y="28.612751"
       transform="matrix(0,-1,1,0,0,0)" />
  </g>
</svg>
