<?xml version="1.0" encoding="UTF-8" standalone="no"?>
<!-- Created with Inkscape (http://www.inkscape.org/) -->

<svg
   xmlns:dc="http://purl.org/dc/elements/1.1/"
   xmlns:cc="http://creativecommons.org/ns#"
   xmlns:rdf="http://www.w3.org/1999/02/22-rdf-syntax-ns#"
   xmlns:svg="http://www.w3.org/2000/svg"
   xmlns="http://www.w3.org/2000/svg"
   xmlns:xlink="http://www.w3.org/1999/xlink"
   xmlns:sodipodi="http://sodipodi.sourceforge.net/DTD/sodipodi-0.dtd"
   xmlns:inkscape="http://www.inkscape.org/namespaces/inkscape"
   version="1.0"
   width="180"
   height="90"
   viewBox="-26.361 -29.699 180 90"
   id="svg2654"
   xml:space="preserve"
   inkscape:version="0.48.4 r9939"
   sodipodi:docname="down.svg"><metadata
     id="metadata3267"><rdf:RDF><cc:Work
         rdf:about=""><dc:format>image/svg+xml</dc:format><dc:type
           rdf:resource="http://purl.org/dc/dcmitype/StillImage" /><dc:title></dc:title></cc:Work></rdf:RDF></metadata><sodipodi:namedview
     pagecolor="#ffffff"
     bordercolor="#666666"
     borderopacity="1"
     objecttolerance="10"
     gridtolerance="10"
     guidetolerance="10"
     inkscape:pageopacity="0"
     inkscape:pageshadow="2"
     inkscape:window-width="1280"
     inkscape:window-height="757"
     id="namedview3265"
     showgrid="true"
     inkscape:zoom="6"
     inkscape:cx="95.158143"
     inkscape:cy="21.986034"
     inkscape:window-x="-1"
     inkscape:window-y="-15"
     inkscape:window-maximized="1"
     inkscape:current-layer="svg2654"><inkscape:grid
       type="xygrid"
       id="grid4512" /></sodipodi:namedview><defs
     id="defs2656"><linearGradient
       id="linearGradient6910"><stop
         id="stop6912"
         style="stop-color:#ffffff;stop-opacity:1"
         offset="0" /><stop
         id="stop6914"
         style="stop-color:#ffffff;stop-opacity:0"
         offset="1" /></linearGradient><linearGradient
       id="linearGradient6902"><stop
         id="stop6904"
         style="stop-color:#ffffff;stop-opacity:1"
         offset="0" /><stop
         id="stop6906"
         style="stop-color:#ffffff;stop-opacity:0"
         offset="1" /></linearGradient><linearGradient
       x1="17.395906"
       y1="15.881111"
       x2="27.67215"
       y2="28.809288"
       id="linearGradient6908"
       xlink:href="#linearGradient6902"
       gradientUnits="userSpaceOnUse" /><linearGradient
       x1="108.22464"
       y1="18.201553"
       x2="94.633476"
       y2="30.135254"
       id="linearGradient6916"
       xlink:href="#linearGradient6910"
       gradientUnits="userSpaceOnUse" /></defs><g
     id="g2891"><linearGradient
       x1="55.2915"
       y1="-19.3125"
       x2="69.639702"
       y2="72.217796"
       id="SVGID_1_"
       gradientUnits="userSpaceOnUse"><stop
         id="stop2894"
         style="stop-color:#ffffff;stop-opacity:1"
         offset="0" /><stop
         id="stop2896"
         style="stop-color:#000000;stop-opacity:1"
         offset="1" /></linearGradient><path
       d="M 93.331,0.001 C 85.732,7.605 75.233,12.301 63.64,12.301 C 52.041,12.301 41.543,7.605 33.946,0.003 L 33.946,0.003 L 0,33.94 C 35.148,69.087 92.129,69.087 127.278,33.94 L 93.331,0.001 C 93.331,0.001 93.331,0.001 93.331,0.001 z"
       id="path2898"
       style="fill:url(#SVGID_1_)" /><radialGradient
       cx="42.623001"
       cy="2.1533"
       r="68.116402"
       id="SVGID_2_"
       gradientUnits="userSpaceOnUse"><stop
         id="stop2901"
         style="stop-color:#ffffff;stop-opacity:1"
         offset="0" /><stop
         id="stop2903"
         style="stop-color:#616161;stop-opacity:1"
         offset="1" /></radialGradient><path
       d="M 63.639,58.301 C 40.804,58.301 19.294,49.659 2.846,33.923 L 33.975,2.8 C 42.096,10.231 52.554,14.301 63.639,14.301 C 74.721,14.301 85.178,10.231 93.298,2.798 L 124.432,33.923 C 107.984,49.659 86.474,58.301 63.639,58.301 L 63.639,58.301 z"
       id="path2905"
       style="fill:url(#SVGID_2_)" /></g><path
     d="M 41.68,12.049 C 42.829,13.123 42.712,14.736 41.419,15.631 L 15.758,37.698 C 14.702,38.869 12.763,39.118 11.447,38.256 L 7.601,35.928 C 6.23,35.156 5.915,33.523 6.903,32.295 L 32.252,7.633 C 33.487,6.655 35.487,6.675 36.7,7.679 L 41.68,12.049 z"
     id="path2907"
     style="opacity:0.8;fill:url(#linearGradient6908);fill-opacity:1" /><path
     d="M 83.505,12.034 C 93.404,7.95 93.056,6.272 101.965,14.85 C 105.331,18.087 122.433,32.129 117.976,36.582 C 105.367,49.198 106.352,33.556 101.118,26.936 C 98.014,23.011 93.655,20.055 88.859,18.536 C 87.509,18.107 74.575,14.006 83.505,12.034"
     id="path2909"
     style="opacity:0.8;fill:url(#linearGradient6916);fill-opacity:1" /><path
     sodipodi:type="star"
     style="fill:#b4b4b4;fill-opacity:1;fill-rule:evenodd;stroke:#828282;stroke-width:2.02555156;stroke-linecap:butt;stroke-linejoin:miter;stroke-miterlimit:4;stroke-opacity:1;stroke-dasharray:none"
     id="path3097"
     sodipodi:sides="3"
     sodipodi:cx="15"
     sodipodi:cy="80"
     sodipodi:r1="19.579611"
     sodipodi:r2="9.7898045"
     sodipodi:arg1="-1.0347564"
     sodipodi:arg2="0.012441191"
     inkscape:flatsided="true"
     inkscape:rounded="0"
     inkscape:randomized="0"
     d="M 25,63.166665 24.578096,97.076921 -4.5780956,79.756413 z"
     transform="matrix(-0.00956809,-0.63960561,0.55410865,-0.00840274,19.480005,42.439998)"
     inkscape:transform-center-x="0.026178439"
     inkscape:transform-center-y="3.1273041" /></svg>