<?xml version="1.0" encoding="UTF-8" standalone="no"?>
<!-- Created with Inkscape (http://www.inkscape.org/) -->

<svg
   xmlns:dc="http://purl.org/dc/elements/1.1/"
   xmlns:cc="http://creativecommons.org/ns#"
   xmlns:rdf="http://www.w3.org/1999/02/22-rdf-syntax-ns#"
   xmlns:svg="http://www.w3.org/2000/svg"
   xmlns="http://www.w3.org/2000/svg"
   xmlns:xlink="http://www.w3.org/1999/xlink"
   xmlns:sodipodi="http://sodipodi.sourceforge.net/DTD/sodipodi-0.dtd"
   xmlns:inkscape="http://www.inkscape.org/namespaces/inkscape"
   version="1.0"
   width="90"
   height="180"
   viewBox="0 -26.361 90 180"
   id="svg5636"
   xml:space="preserve"
   inkscape:version="0.48.4 r9939"
   sodipodi:docname="left1.svg"><metadata
     id="metadata3080"><rdf:RDF><cc:Work
         rdf:about=""><dc:format>image/svg+xml</dc:format><dc:type
           rdf:resource="http://purl.org/dc/dcmitype/StillImage" /><dc:title></dc:title></cc:Work></rdf:RDF></metadata><sodipodi:namedview
     pagecolor="#ffffff"
     bordercolor="#666666"
     borderopacity="1"
     objecttolerance="10"
     gridtolerance="10"
     guidetolerance="10"
     inkscape:pageopacity="0"
     inkscape:pageshadow="2"
     inkscape:window-width="1280"
     inkscape:window-height="757"
     id="namedview3078"
     showgrid="true"
     inkscape:zoom="3"
     inkscape:cx="48.172216"
     inkscape:cy="87.68036"
     inkscape:window-x="-1"
     inkscape:window-y="-15"
     inkscape:window-maximized="1"
     inkscape:current-layer="svg5636"><inkscape:grid
       type="xygrid"
       id="grid3084" /></sodipodi:namedview><defs
     id="defs5638"><linearGradient
       id="linearGradient6536"><stop
         id="stop6538"
         style="stop-color:#ffffff;stop-opacity:1"
         offset="0" /><stop
         id="stop6540"
         style="stop-color:#ffffff;stop-opacity:0"
         offset="1" /></linearGradient><linearGradient
       id="linearGradient6528"><stop
         id="stop6530"
         style="stop-color:#ffffff;stop-opacity:1"
         offset="0" /><stop
         id="stop6532"
         style="stop-color:#ffffff;stop-opacity:0"
         offset="1" /></linearGradient><linearGradient
       x1="26.024096"
       y1="4.7233377"
       x2="27.108435"
       y2="36.530567"
       id="linearGradient6534"
       xlink:href="#linearGradient6528"
       gradientUnits="userSpaceOnUse" /><linearGradient
       x1="26.746988"
       y1="118.81118"
       x2="27.108435"
       y2="93.277557"
       id="linearGradient6542"
       xlink:href="#linearGradient6536"
       gradientUnits="userSpaceOnUse" /></defs><g
     id="g5873"><linearGradient
       x1="0.69870001"
       y1="7.1630998"
       x2="67.283699"
       y2="127.4345"
       id="SVGID_1_"
       gradientUnits="userSpaceOnUse"><stop
         id="stop5876"
         style="stop-color:#ffffff;stop-opacity:1"
         offset="0" /><stop
         id="stop5878"
         style="stop-color:#000000;stop-opacity:1"
         offset="1" /></linearGradient><path
       d="M 26.564,127.278 L 60.403,93.229 C 52.777,85.649 48.037,75.162 48,63.57 C 47.963,51.978 52.637,41.46 60.214,33.831 L 26.158,0 C -8.878,35.261 -8.695,92.242 26.564,127.278 z"
       id="path5880"
       style="fill:url(#SVGID_1_)" /><radialGradient
       cx="14.0996"
       cy="10.7251"
       r="97.035896"
       id="SVGID_2_"
       gradientUnits="userSpaceOnUse"><stop
         id="stop5883"
         style="stop-color:#ffffff;stop-opacity:1"
         offset="0" /><stop
         id="stop5885"
         style="stop-color:#616161;stop-opacity:1"
         offset="1" /></radialGradient><path
       d="M 26.573,124.434 C 10.784,108.037 2.073,86.555 2,63.716 C 1.928,40.88 10.502,19.344 26.184,2.843 L 57.415,33.873 C 50.004,42.026 45.965,52.498 46,63.575 C 46.036,74.654 50.143,85.099 57.608,93.207 L 26.573,124.434 L 26.573,124.434 z"
       id="path5887"
       style="fill:url(#SVGID_2_)" /></g><path
     d="M 55.044,33.789 C 55.044,33.789 39.294,26.754 27.887,27.698 C 16.476,28.626 7.198,39.246 7.198,39.246 C 7.198,39.246 17.443,8.676 26.291,8.176 C 32.099,7.848 55.044,33.789 55.044,33.789 z"
     id="path5889"
     style="opacity:0.8;fill:url(#linearGradient6534);fill-opacity:1" /><path
     d="M 8.432,91.316 C 8.432,91.316 18.57,98.334 29.362,100.108 C 40.153,101.896 53.959,93.444 53.959,93.444 C 53.959,93.444 29.831,119.399 26.267,118.801 C 19.026,117.589 8.432,91.316 8.432,91.316 z"
     id="path5891"
     style="opacity:0.7;fill:url(#linearGradient6542);fill-opacity:1" /><path
     sodipodi:type="star"
     style="fill:#b4b4b4;fill-opacity:1;fill-rule:evenodd;stroke:#828282;stroke-width:2.02555156;stroke-linecap:butt;stroke-linejoin:miter;stroke-miterlimit:4;stroke-opacity:1;stroke-dasharray:none"
     id="path3097"
     sodipodi:sides="3"
     sodipodi:cx="15"
     sodipodi:cy="80"
     sodipodi:r1="19.579611"
     sodipodi:r2="9.7898045"
     sodipodi:arg1="-1.0347564"
     sodipodi:arg2="0.012441191"
     inkscape:flatsided="true"
     inkscape:rounded="0"
     inkscape:randomized="0"
     d="M 25,63.166665 24.578096,97.076921 -4.5780956,79.756413 z"
     transform="matrix(0.63960561,-0.00956809,0.00840274,0.55410865,17.861002,19.480004)"
     inkscape:transform-center-x="3.1273039"
     inkscape:transform-center-y="-0.026176567" /></svg>