<?xml version="1.0" encoding="UTF-8" standalone="no"?>
<!-- Created with Inkscape (http://www.inkscape.org/) -->

<svg
   xmlns:dc="http://purl.org/dc/elements/1.1/"
   xmlns:cc="http://creativecommons.org/ns#"
   xmlns:rdf="http://www.w3.org/1999/02/22-rdf-syntax-ns#"
   xmlns:svg="http://www.w3.org/2000/svg"
   xmlns="http://www.w3.org/2000/svg"
   xmlns:xlink="http://www.w3.org/1999/xlink"
   xmlns:sodipodi="http://sodipodi.sourceforge.net/DTD/sodipodi-0.dtd"
   xmlns:inkscape="http://www.inkscape.org/namespaces/inkscape"
   version="1.0"
   width="90"
   height="180"
   viewBox="-29.597 -26.349 90 180"
   id="svg4012"
   xml:space="preserve"
   inkscape:version="0.48.4 r9939"
   sodipodi:docname="right.svg"><metadata
     id="metadata3080"><rdf:RDF><cc:Work
         rdf:about=""><dc:format>image/svg+xml</dc:format><dc:type
           rdf:resource="http://purl.org/dc/dcmitype/StillImage" /><dc:title></dc:title></cc:Work></rdf:RDF></metadata><sodipodi:namedview
     pagecolor="#ffffff"
     bordercolor="#666666"
     borderopacity="1"
     objecttolerance="10"
     gridtolerance="10"
     guidetolerance="10"
     inkscape:pageopacity="0"
     inkscape:pageshadow="2"
     inkscape:window-width="1280"
     inkscape:window-height="757"
     id="namedview3078"
     showgrid="true"
     inkscape:zoom="6"
     inkscape:cx="45"
     inkscape:cy="90"
     inkscape:window-x="-1"
     inkscape:window-y="-15"
     inkscape:window-maximized="1"
     inkscape:current-layer="svg4012"><inkscape:grid
       type="xygrid"
       id="grid3278" /></sodipodi:namedview><defs
     id="defs4014"><linearGradient
       id="linearGradient6728"><stop
         id="stop6730"
         style="stop-color:#ffffff;stop-opacity:1"
         offset="0" /><stop
         id="stop6732"
         style="stop-color:#ffffff;stop-opacity:0"
         offset="1" /></linearGradient><linearGradient
       id="linearGradient6720"><stop
         id="stop6722"
         style="stop-color:#ffffff;stop-opacity:1"
         offset="0" /><stop
         id="stop6724"
         style="stop-color:#ffffff;stop-opacity:0"
         offset="1" /></linearGradient><linearGradient
       x1="17.029507"
       y1="19.193169"
       x2="28.595772"
       y2="34.012447"
       id="linearGradient6726"
       xlink:href="#linearGradient6720"
       gradientUnits="userSpaceOnUse" /><linearGradient
       x1="34.01746"
       y1="122.20523"
       x2="31.848783"
       y2="92.928108"
       id="linearGradient6734"
       xlink:href="#linearGradient6728"
       gradientUnits="userSpaceOnUse" /></defs><g
     id="g4249"><linearGradient
       x1="-0.43650001"
       y1="9.1138"
       x2="70.896103"
       y2="144.4465"
       id="SVGID_1_"
       gradientUnits="userSpaceOnUse"
       gradientTransform="matrix(1,-3.2e-3,3.2e-3,1,-0.2065,0.1021)"><stop
         id="stop4252"
         style="stop-color:#ffffff;stop-opacity:1"
         offset="0" /><stop
         id="stop4254"
         style="stop-color:#000000;stop-opacity:1"
         offset="1" /></linearGradient><path
       d="M 33.839,0 L 0,34.049 C 7.626,41.629 12.366,52.116 12.403,63.709 C 12.44,75.301 7.766,85.819 0.189,93.448 L 34.245,127.279 C 69.281,92.018 69.099,35.036 33.839,0 z"
       id="path4256"
       style="fill:url(#SVGID_1_)" /><radialGradient
       cx="14.2725"
       cy="33.629398"
       r="69.956001"
       id="SVGID_2_"
       gradientUnits="userSpaceOnUse"
       gradientTransform="matrix(1,-3.2e-3,3.2e-3,1,-0.2065,0.1021)"><stop
         id="stop4259"
         style="stop-color:#ffffff;stop-opacity:1"
         offset="0" /><stop
         id="stop4261"
         style="stop-color:#616161;stop-opacity:1"
         offset="1" /></radialGradient><path
       d="M 34.219,124.436 L 2.986,93.406 C 10.398,85.253 14.438,74.78 14.403,63.703 C 14.368,52.623 10.26,42.18 2.797,34.073 L 33.832,2.844 C 49.62,19.242 58.329,40.723 58.404,63.562 C 58.478,86.397 49.903,107.936 34.219,124.436 L 34.219,124.436 z"
       id="path4263"
       style="fill:url(#SVGID_2_)" /></g><path
     d="M 8.329,94.76 C 8.329,94.76 20.704,99.448 32.385,98.484 C 44.072,97.531 52.183,89.251 52.183,89.251 C 52.183,89.251 40.632,118.842 33.18,117.552 C 27.731,116.608 8.329,94.76 8.329,94.76 z"
     id="path4265"
     style="opacity:0.8;fill:url(#linearGradient6734);fill-opacity:1" /><path
     d="M 42.089,15.184 C 43.275,16.209 43.421,19.083 42.089,19.942 L 14.993,37.951 C 13.902,39.069 11.223,39.555 9.865,38.732 L 6.577,36.257 C 5.163,35.519 4.838,33.955 5.856,32.781 L 29.813,8.839 C 34.863,4.368 34.296,5.572 37.484,8.839 L 42.089,15.184 z"
     id="path4267"
     style="opacity:0.8;fill:url(#linearGradient6726);fill-opacity:1" /><path
     sodipodi:type="star"
     style="fill:#b4b4b4;fill-opacity:1;fill-rule:evenodd;stroke:#828282;stroke-width:2.02555156;stroke-linecap:butt;stroke-linejoin:miter;stroke-miterlimit:4;stroke-opacity:1;stroke-dasharray:none"
     id="path3097"
     sodipodi:sides="3"
     sodipodi:cx="15"
     sodipodi:cy="80"
     sodipodi:r1="19.579611"
     sodipodi:r2="9.7898045"
     sodipodi:arg1="-1.0347564"
     sodipodi:arg2="0.012441191"
     inkscape:flatsided="true"
     inkscape:rounded="0"
     inkscape:randomized="0"
     d="M 25,63.166665 24.578096,97.076921 -4.5780956,79.756413 z"
     transform="matrix(-0.63960561,0.00956809,-0.00840274,-0.55410865,42.541998,107.80999)"
     inkscape:transform-center-x="-3.1273043"
     inkscape:transform-center-y="0.026178639" /></svg>