<?xml version="1.0" encoding="UTF-8" standalone="no"?>
<!-- Created with Inkscape (http://www.inkscape.org/) -->

<svg
   xmlns:dc="http://purl.org/dc/elements/1.1/"
   xmlns:cc="http://creativecommons.org/ns#"
   xmlns:rdf="http://www.w3.org/1999/02/22-rdf-syntax-ns#"
   xmlns:svg="http://www.w3.org/2000/svg"
   xmlns="http://www.w3.org/2000/svg"
   xmlns:xlink="http://www.w3.org/1999/xlink"
   xmlns:sodipodi="http://sodipodi.sourceforge.net/DTD/sodipodi-0.dtd"
   xmlns:inkscape="http://www.inkscape.org/namespaces/inkscape"
   id="svg2"
   version="1.1"
   inkscape:version="0.48.4 r9939"
   width="40"
   height="40"
   sodipodi:docname="headlights_pressed.svg">
  <metadata
     id="metadata8">
    <rdf:RDF>
      <cc:Work
         rdf:about="">
        <dc:format>image/svg+xml</dc:format>
        <dc:type
           rdf:resource="http://purl.org/dc/dcmitype/StillImage" />
        <dc:title />
      </cc:Work>
    </rdf:RDF>
  </metadata>
  <defs
     id="defs6">
    <linearGradient
       inkscape:collect="always"
       id="linearGradient3816">
      <stop
         style="stop-color:#ccff00;stop-opacity:1;"
         offset="0"
         id="stop3818" />
      <stop
         style="stop-color:#ccff00;stop-opacity:0;"
         offset="1"
         id="stop3820" />
    </linearGradient>
    <linearGradient
       inkscape:collect="always"
       id="linearGradient3784">
      <stop
         style="stop-color:#ccff00;stop-opacity:1;"
         offset="0"
         id="stop3786" />
      <stop
         style="stop-color:#ccff00;stop-opacity:0;"
         offset="1"
         id="stop3788" />
    </linearGradient>
    <linearGradient
       inkscape:collect="always"
       id="linearGradient3853">
      <stop
         style="stop-color:#66ff00;stop-opacity:1;"
         offset="0"
         id="stop3855" />
      <stop
         style="stop-color:#66ff00;stop-opacity:0;"
         offset="1"
         id="stop3857" />
    </linearGradient>
    <linearGradient
       inkscape:collect="always"
       id="linearGradient3765">
      <stop
         style="stop-color:#00ff00;stop-opacity:1;"
         offset="0"
         id="stop3767" />
      <stop
         style="stop-color:#00ff00;stop-opacity:0;"
         offset="1"
         id="stop3769" />
    </linearGradient>
    <linearGradient
       inkscape:collect="always"
       xlink:href="#linearGradient3765"
       id="linearGradient3771"
       x1="0"
       y1="150.5"
       x2="300"
       y2="150.5"
       gradientUnits="userSpaceOnUse" />
    <linearGradient
       inkscape:collect="always"
       xlink:href="#linearGradient3853"
       id="linearGradient3859"
       x1="0.88388348"
       y1="21.307463"
       x2="22.02241"
       y2="21.307463"
       gradientUnits="userSpaceOnUse" />
    <linearGradient
       inkscape:collect="always"
       xlink:href="#linearGradient3784"
       id="linearGradient3790"
       x1="22.495518"
       y1="29.994059"
       x2="38.869201"
       y2="29.994059"
       gradientUnits="userSpaceOnUse" />
    <linearGradient
       inkscape:collect="always"
       xlink:href="#linearGradient3784"
       id="linearGradient3792"
       x1="23.29195"
       y1="25.548027"
       x2="38.886663"
       y2="25.548027"
       gradientUnits="userSpaceOnUse" />
    <linearGradient
       inkscape:collect="always"
       xlink:href="#linearGradient3784"
       id="linearGradient3794"
       x1="24.454307"
       y1="21.31212"
       x2="38.871677"
       y2="21.31212"
       gradientUnits="userSpaceOnUse" />
    <linearGradient
       inkscape:collect="always"
       xlink:href="#linearGradient3784"
       id="linearGradient3796"
       x1="23.532428"
       y1="16.867655"
       x2="38.869201"
       y2="16.867655"
       gradientUnits="userSpaceOnUse" />
    <linearGradient
       inkscape:collect="always"
       xlink:href="#linearGradient3784"
       id="linearGradient3798"
       x1="22.290985"
       y1="12.633332"
       x2="38.886667"
       y2="12.633332"
       gradientUnits="userSpaceOnUse" />
    <linearGradient
       inkscape:collect="always"
       xlink:href="#linearGradient3816"
       id="linearGradient3822"
       x1="11.946419"
       y1="21.456241"
       x2="20.788622"
       y2="21.456241"
       gradientUnits="userSpaceOnUse" />
  </defs>
  <sodipodi:namedview
     pagecolor="#ffffff"
     bordercolor="#666666"
     borderopacity="1"
     objecttolerance="10"
     gridtolerance="10"
     guidetolerance="10"
     inkscape:pageopacity="1"
     inkscape:pageshadow="2"
     inkscape:window-width="1280"
     inkscape:window-height="757"
     id="namedview4"
     showgrid="false"
     inkscape:zoom="5.6568542"
     inkscape:cx="19.301063"
     inkscape:cy="41.593701"
     inkscape:window-x="-1"
     inkscape:window-y="-15"
     inkscape:window-maximized="1"
     inkscape:current-layer="svg2" />
  <path
     style="fill:url(#linearGradient3859);fill-opacity:1;fill-rule:nonzero;stroke:#51504e;stroke-width:0.32190537000000002;stroke-miterlimit:4;stroke-opacity:1;stroke-dasharray:none"
     d="M 12.812967,32.325303 C 12.703755,32.286785 11.899568,32.092949 11.02588,31.894581 9.3672386,31.517994 6.8094083,30.573796 6.6356052,30.273958 c -0.055482,-0.09575 -0.260463,-0.174036 -0.4555131,-0.174036 -0.19505,0 -0.5163655,-0.190545 -0.7140349,-0.423431 -0.1976683,-0.232895 -0.4464298,-0.42344 -0.5528033,-0.42344 -0.3726547,0 -2.3554491,-2.40409 -2.8622054,-3.470358 C 0.8008539,23.152149 0.69775834,18.77492 1.8422444,16.91728 c 0.1911193,-0.310204 0.3474889,-0.649222 0.3474889,-0.753373 0,-0.666831 3.7686052,-4.059861 4.5092532,-4.059861 0.1074125,0 0.4701456,-0.146193 0.806073,-0.324882 1.3711706,-0.729331 5.8182265,-1.57396 8.3117765,-1.578652 2.063061,-0.004 3.331359,1.037234 4.769123,3.91484 1.235994,2.473775 1.655831,7.945006 0.893537,11.644389 -0.35483,1.721963 -1.350792,4.340181 -1.650997,4.340181 -0.09077,0 -0.165035,0.09034 -0.165035,0.200808 0,0.235068 -0.87657,1.281205 -1.07354,1.281205 -0.07396,0 -0.326277,0.190545 -0.560727,0.42343 -0.377672,0.375166 -0.687982,0.421529 -2.721968,0.406722 -1.262634,-0.009 -2.385052,-0.04823 -2.494262,-0.08675 z m 4.986778,-1.605165 c 1.087931,-0.716904 2.022347,-2.312425 2.704767,-4.618418 0.341017,-1.152331 0.416085,-1.963432 0.423538,-4.576307 0.0089,-3.12914 -0.239764,-4.797947 -0.914957,-6.139772 -0.551115,-1.095232 -0.684318,-1.322255 -1.214949,-2.070606 -0.963236,-1.358443 -2.426649,-1.808696 -3.661898,-1.126648 -0.640563,0.353685 -1.825058,1.699132 -1.831282,2.08011 -0.0024,0.148654 -0.17915,0.508462 -0.392715,0.799577 -0.213565,0.291104 -0.390286,0.684039 -0.392715,0.873173 -0.0024,0.189133 -0.143997,0.760767 -0.3146,1.270299 -0.500015,1.493359 -0.445711,7.097526 0.08659,8.935026 0.416911,1.439194 1.192453,3.103598 1.782233,3.824875 0.987285,1.207409 2.552585,1.521935 3.725999,0.748691 l 0,0 z"
     id="path3783"
     inkscape:connector-curvature="0" />
  <path
     style="fill:url(#linearGradient3822);fill-opacity:1;fill-rule:nonzero;stroke:#51504e;stroke-width:0.32190537000000002;stroke-miterlimit:4;stroke-opacity:1;stroke-dasharray:none"
     d="M 14.877624,30.254688 C 13.834515,29.512 12.618291,26.755884 12.309221,24.434364 c -0.76501,-5.746227 0.707116,-11.074127 3.3566,-12.148179 1.492414,-0.604989 3.293168,1.099856 4.391962,4.158041 0.372837,1.037694 0.473342,1.813037 0.54887,4.234327 0.05426,1.739663 7.74e-4,3.488749 -0.129537,4.234318 -0.22906,1.310709 -1.310944,3.906896 -1.943693,4.664271 -1.056928,1.265097 -2.464249,1.525916 -3.655799,0.677546 l 0,0 z"
     id="path3801"
     inkscape:connector-curvature="0" />
  <path
     style="fill:url(#linearGradient3798);fill-opacity:1;fill-rule:nonzero;stroke:#51504e;stroke-width:0.32190537000000002;stroke-miterlimit:4;stroke-opacity:1;stroke-dasharray:none"
     d="m 22.681653,13.331994 c -0.306287,-0.326572 -0.306287,-1.070751 0,-1.397323 0.34211,-0.364771 15.463672,-0.364771 15.805784,0 0.131053,0.13973 0.238277,0.454135 0.238277,0.698666 0,0.244532 -0.107224,0.558927 -0.238277,0.698657 -0.342112,0.364771 -15.463674,0.364771 -15.805784,0 z"
     id="path3811"
     inkscape:connector-curvature="0" />
  <path
     style="fill:url(#linearGradient3796);fill-opacity:1;fill-rule:nonzero;stroke:#51504e;stroke-width:0.32190537000000002;stroke-miterlimit:4;stroke-opacity:1;stroke-dasharray:none"
     d="m 23.83062,17.661599 c -0.0016,-0.08734 -0.05311,-0.358948 -0.114702,-0.60359 -0.06717,-0.266811 0.01904,-0.584509 0.215459,-0.793932 0.291699,-0.311024 1.083164,-0.349144 7.248862,-0.349144 6.027441,0 6.961716,0.04302 7.233445,0.332695 0.347872,0.370914 0.356498,0.421529 0.186877,1.096393 l -0.11973,0.476356 -7.32375,0 c -4.028063,0 -7.324971,-0.07143 -7.326461,-0.158778 z"
     id="path3813"
     inkscape:connector-curvature="0" />
  <path
     style="fill:url(#linearGradient3794);fill-opacity:1;fill-rule:nonzero;stroke:#51504e;stroke-width:0.32190537000000002;stroke-miterlimit:4;stroke-opacity:1;stroke-dasharray:none"
     d="m 24.97508,22.037747 c -0.527074,-0.327323 -0.459113,-1.383776 0.09928,-1.543325 0.245725,-0.07023 3.27739,-0.128963 6.737033,-0.130555 5.456076,-0.002 6.331638,0.04122 6.602289,0.329803 0.396057,0.42229 0.396057,0.817766 0,1.240056 -0.270997,0.288943 -1.152283,0.331854 -6.701573,0.326261 -3.969289,-0.004 -6.521165,-0.08814 -6.737031,-0.22224 z"
     id="path3815"
     inkscape:connector-curvature="0" />
  <path
     style="fill:url(#linearGradient3792);fill-opacity:1;fill-rule:nonzero;stroke:#51504e;stroke-width:0.32190537000000002;stroke-miterlimit:4;stroke-opacity:1;stroke-dasharray:none"
     d="m 23.74823,26.168043 c -0.409098,-0.436186 -0.394197,-0.792682 0.05109,-1.222355 0.323372,-0.312035 1.126088,-0.350384 7.332726,-0.350384 6.071248,0 7.009822,0.04292 7.281633,0.332695 0.171616,0.18298 0.312031,0.461989 0.312031,0.620027 0,0.158029 -0.140415,0.437036 -0.312031,0.620017 -0.271899,0.289913 -1.215028,0.332706 -7.332727,0.332706 -6.117697,0 -7.060827,-0.04282 -7.332726,-0.332706 z"
     id="path3817"
     inkscape:connector-curvature="0" />
  <path
     style="fill:url(#linearGradient3790);fill-opacity:1;fill-rule:nonzero;stroke:#51504e;stroke-width:0.32190537000000002;stroke-miterlimit:4;stroke-opacity:1;stroke-dasharray:none"
     d="m 22.95397,30.614086 c -0.365901,-0.390134 -0.38574,-0.606871 -0.106479,-1.163237 0.197808,-0.394085 0.496168,-0.409512 7.919446,-0.409512 l 7.713894,0 0.11973,0.476365 c 0.169621,0.674855 0.160995,0.725471 -0.186877,1.096384 -0.272527,0.290584 -1.251133,0.332695 -7.729857,0.332695 -6.478723,0 -7.457328,-0.04212 -7.729857,-0.332695 z"
     id="path3819"
     inkscape:connector-curvature="0" />
</svg>
