<?xml version="1.0" encoding="UTF-8" standalone="no"?>
<!-- Created with Inkscape (http://www.inkscape.org/) -->

<svg
   xmlns:osb="http://www.openswatchbook.org/uri/2009/osb"
   xmlns:dc="http://purl.org/dc/elements/1.1/"
   xmlns:cc="http://creativecommons.org/ns#"
   xmlns:rdf="http://www.w3.org/1999/02/22-rdf-syntax-ns#"
   xmlns:svg="http://www.w3.org/2000/svg"
   xmlns="http://www.w3.org/2000/svg"
   xmlns:xlink="http://www.w3.org/1999/xlink"
   xmlns:sodipodi="http://sodipodi.sourceforge.net/DTD/sodipodi-0.dtd"
   xmlns:inkscape="http://www.inkscape.org/namespaces/inkscape"
   width="20"
   height="20"
   id="svg2"
   version="1.1"
   inkscape:version="0.48.4 r9939"
   sodipodi:docname="circle.svg">
  <defs
     id="defs4">
    <linearGradient
       id="linearGradient5752"
       osb:paint="solid">
      <stop
         style="stop-color:#00ff00;stop-opacity:1;"
         offset="0"
         id="stop5754" />
    </linearGradient>
    <linearGradient
       id="linearGradient4298">
      <stop
         id="stop4306"
         offset="0"
         style="stop-color:#11f400;stop-opacity:1;" />
      <stop
         style="stop-color:#0cf600;stop-opacity:0.37254902;"
         offset="0.25"
         id="stop4310" />
      <stop
         style="stop-color:#08f900;stop-opacity:0.24705882;"
         offset="0.5"
         id="stop4308" />
      <stop
         style="stop-color:#00ff00;stop-opacity:0;"
         offset="1"
         id="stop4302" />
    </linearGradient>
    <filter
       id="filter2991"
       inkscape:label="Diffuse light"
       inkscape:menu="ABCs"
       inkscape:menu-tooltip="Basic diffuse bevel to use for building textures"
       color-interpolation-filters="sRGB">
      <feGaussianBlur
         id="feGaussianBlur2993"
         stdDeviation="6"
         in="SourceGraphic"
         result="result0" />
      <feDiffuseLighting
         id="feDiffuseLighting2995"
         diffuseConstant="1"
         surfaceScale="10"
         result="result5">
        <feDistantLight
           id="feDistantLight2997"
           elevation="25"
           azimuth="235" />
      </feDiffuseLighting>
      <feComposite
         id="feComposite2999"
         in2="SourceGraphic"
         k1="1"
         in="result5"
         result="result4"
         operator="arithmetic"
         k2="0"
         k3="0.6"
         k4="0" />
    </filter>
    <linearGradient
       x1="39.682732"
       y1="79.859444"
       x2="39.847389"
       y2="68.333336"
       id="linearGradient6806"
       xlink:href="#linearGradient6800"
       gradientUnits="userSpaceOnUse"
       gradientTransform="matrix(0.24390244,0,0,0.24390244,-2.0938402,1084.1822)" />
    <linearGradient
       id="linearGradient6800">
      <stop
         id="stop6802"
         style="stop-color:#ffffff;stop-opacity:1"
         offset="0" />
      <stop
         id="stop6804"
         style="stop-color:#ffffff;stop-opacity:0"
         offset="1" />
    </linearGradient>
    <linearGradient
       x1="40.8395"
       y1="1.9759037"
       x2="41"
       y2="37.37751"
       id="linearGradient6798"
       xlink:href="#linearGradient6792"
       gradientUnits="userSpaceOnUse"
       gradientTransform="matrix(0.24390244,0,0,0.24390244,-2.0938402,1084.1822)" />
    <linearGradient
       id="linearGradient6792">
      <stop
         id="stop6794"
         style="stop-color:#ffffff;stop-opacity:1"
         offset="0" />
      <stop
         id="stop6796"
         style="stop-color:#ffffff;stop-opacity:0"
         offset="1" />
    </linearGradient>
    <linearGradient
       x1="-14.439"
       y1="-16.7803"
       x2="93.464996"
       y2="95.686699"
       id="SVGID_1_"
       gradientUnits="userSpaceOnUse">
      <stop
         id="stop3709"
         style="stop-color:#ffffff;stop-opacity:1"
         offset="0" />
      <stop
         id="stop3711"
         style="stop-color:#000000;stop-opacity:1"
         offset="1" />
    </linearGradient>
    <radialGradient
       r="75.801399"
       cy="7.0556998"
       cx="18.971701"
       gradientUnits="userSpaceOnUse"
       id="radialGradient3043"
       xlink:href="#SVGID_2_"
       inkscape:collect="always" />
    <radialGradient
       cx="18.971701"
       cy="7.0556998"
       r="75.801399"
       id="SVGID_2_"
       gradientUnits="userSpaceOnUse">
      <stop
         id="stop3716"
         style="stop-color:#ffffff;stop-opacity:1"
         offset="0" />
      <stop
         id="stop3718"
         style="stop-color:#616161;stop-opacity:1"
         offset="1" />
    </radialGradient>
    <radialGradient
       r="75.801399"
       cy="7.0556998"
       cx="18.971701"
       gradientUnits="userSpaceOnUse"
       id="radialGradient3814"
       xlink:href="#SVGID_2_"
       inkscape:collect="always" />
  </defs>
  <sodipodi:namedview
     id="base"
     pagecolor="#ffffff"
     bordercolor="#666666"
     borderopacity="1.0"
     inkscape:pageopacity="0.0"
     inkscape:pageshadow="2"
     inkscape:zoom="4"
     inkscape:cx="69.375"
     inkscape:cy="-22.550221"
     inkscape:document-units="px"
     inkscape:current-layer="layer1"
     showgrid="false"
     inkscape:window-width="1280"
     inkscape:window-height="757"
     inkscape:window-x="-1"
     inkscape:window-y="-15"
     inkscape:window-maximized="1" />
  <metadata
     id="metadata7">
    <rdf:RDF>
      <cc:Work
         rdf:about="">
        <dc:format>image/svg+xml</dc:format>
        <dc:type
           rdf:resource="http://purl.org/dc/dcmitype/StillImage" />
      </cc:Work>
    </rdf:RDF>
  </metadata>
  <g
     inkscape:label="Layer 1"
     inkscape:groupmode="layer"
     id="layer1"
     transform="translate(0,-1032.3622)">
    <g
       id="g3706"
       transform="matrix(0.24390244,0,0,0.24390244,0,1032.3622)"
       style="stroke:#777777;stroke-width:0;stroke-miterlimit:4;stroke-opacity:1;stroke-dasharray:none">
      <linearGradient
         x1="-14.439"
         y1="-16.7803"
         x2="93.464996"
         y2="95.686699"
         id="linearGradient3026"
         gradientUnits="userSpaceOnUse">
        <stop
           id="stop3028"
           style="stop-color:#ffffff;stop-opacity:1"
           offset="0" />
        <stop
           id="stop3030"
           style="stop-color:#000000;stop-opacity:1"
           offset="1" />
      </linearGradient>
      <path
         inkscape:connector-curvature="0"
         d="m 69.984,12.008 c 0,-10e-4 0,-10e-4 0,0 C 62.566,4.585 52.318,0 41,0 29.677,0 19.43,4.585 12.013,12.005 l 0,0 C 4.592,19.43 0,29.682 0,41 0,52.318 4.592,62.57 12.012,69.995 l 0,0 C 19.43,77.415 29.677,82 41,82 c 11.318,0 21.566,-4.585 28.984,-12.007 0,0 0,0 0,-10e-4 C 77.406,62.569 82,52.317 82,41 82,29.683 77.406,19.431 69.984,12.008 z"
         id="path3713"
         style="fill:url(#SVGID_1_);stroke:#777777;stroke-width:0;stroke-miterlimit:4;stroke-opacity:1;stroke-dasharray:none" />
      <radialGradient
         cx="18.971701"
         cy="7.0556998"
         r="75.801399"
         id="radialGradient3033"
         gradientUnits="userSpaceOnUse">
        <stop
           id="stop3035"
           style="stop-color:#ffffff;stop-opacity:1"
           offset="0" />
        <stop
           id="stop3037"
           style="stop-color:#616161;stop-opacity:1"
           offset="1" />
      </radialGradient>
      <path
         inkscape:connector-curvature="0"
         d="M 41,80 C 30.58,80 20.789,75.944 13.426,68.582 6.058,61.209 2,51.413 2,41 2,30.586 6.058,20.791 13.426,13.418 20.79,6.056 30.581,2 41,2 51.417,2 61.207,6.056 68.57,13.42 75.94,20.793 79.998,30.586 79.998,41 79.998,51.413 75.94,61.207 68.57,68.578 61.207,75.944 51.418,80 41,80 l 0,0 z"
         id="path3720"
         style="fill:url(#radialGradient3814);stroke:#777777;stroke-width:0;stroke-miterlimit:4;stroke-opacity:1;stroke-dasharray:none" />
    </g>
    <path
       inkscape:connector-curvature="0"
       d="m 7.8666477,1091.5127 c 3.6175613,0 6.8700003,1.5087 9.1229263,3.9104 0.09342,-0.5104 0.144635,-1.0346 0.144635,-1.5709 0,-4.9513 -4.148536,-8.9639 -9.2673174,-8.9639 -5.1187805,0 -9.2670732,4.0126 -9.2670732,8.9639 0,0.5363 0.051464,1.0605 0.144878,1.5709 2.25243907,-2.4019 5.5048781,-3.9104 9.1219513,-3.9104 z"
       id="path3722"
       style="opacity:0.8;fill:url(#linearGradient6798);fill-opacity:1" />
    <path
       inkscape:connector-curvature="0"
       d="m 1.6025013,1100.6766 c 0,0 2.7973171,0.6539 6.2485367,0.6539 3.451219,0 6.247805,-0.6539 6.247805,-0.6539 0,0 -2.082195,2.497 -6.247805,2.497 -3.9770732,0 -6.2485367,-2.497 -6.2485367,-2.497 z"
       id="path3724"
       style="opacity:0.8;fill:url(#linearGradient6806);fill-opacity:1" />
    <path
       sodipodi:type="arc"
       style="fill:#b4b4b4;fill-opacity:1;fill-rule:nonzero;stroke:#777777;stroke-width:1;stroke-miterlimit:4;stroke-opacity:1;stroke-dasharray:none"
       id="path5857"
       sodipodi:cx="10"
       sodipodi:cy="10.5"
       sodipodi:rx="3.5"
       sodipodi:ry="3.5"
       d="m 13.5,10.5 a 3.5,3.5 0 1 1 -7,0 3.5,3.5 0 1 1 7,0 z"
       transform="translate(0,1031.8622)" />
  </g>
</svg>
